Coordinates
version=1
nRows=19
nColumns=27
inDegrees=yes

Units are S.I. units (second, meters, Newtons, ...)
If the header above contains a line with 'inDegrees', this indicates whether rotational values are in degrees (yes) or radians (no).

endheader
time	pelvis_rotation	pelvis_tilt	pelvis_list	pelvis_tx	pelvis_ty	pelvis_tz	hip_flexion_r	hip_adduction_r	hip_rotation_r	knee_angle_r	knee_rotation_r	knee_adduction_r	knee_angle_r_beta	ankle_angle_r	subtalar_angle_r	mtp_angle_r	hip_flexion_l	hip_adduction_l	hip_rotation_l	knee_angle_l	knee_rotation_l	knee_adduction_l	knee_angle_l_beta	ankle_angle_l	subtalar_angle_l	mtp_angle_l
      3.27500000	      6.62425406	    -32.09819648	      5.68349203	     -0.03506995	      0.54725070	     -1.17806109	    115.48356280	    -45.56641433	     14.76029857	     96.50900215	      0.00000000	      9.92077346	      1.68439985	     14.61486197	      0.00000000	      0.00000000	    107.87635093	    -30.27459296	      8.20615668	     90.49438163	      0.00000000	     -9.94398660	      1.57942491	     12.07089296	      0.00000000	      0.00000000
      3.28000000	      6.58162935	    -32.06634591	      5.65499801	     -0.03494958	      0.54570938	     -1.17805252	    115.71190728	    -45.54073771	     14.95917282	     96.74170086	      0.00000000	      9.92097703	      1.68846120	     14.66937978	      0.00000000	      0.00000000	    108.08811198	    -30.32976144	      8.37315254	     90.74571147	      0.00000000	     -9.94413918	      1.58381145	     12.13521634	      0.00000000	      0.00000000
      3.28500000	      6.53654255	    -32.06562405	      5.62465517	     -0.03494156	      0.54416756	     -1.17802400	    115.96494386	    -45.48812799	     15.15320838	     96.96686973	      0.00000000	      9.92128315	      1.69239114	     14.75055234	      0.00000000	      0.00000000	    108.33502638	    -30.37439267	      8.56019473	     90.99109642	      0.00000000	     -9.94433578	      1.58809422	     12.20966822	      0.00000000	      0.00000000
      3.29000000	      6.49415754	    -32.03307262	      5.58099133	     -0.03481972	      0.54262360	     -1.17804339	    116.17405494	    -45.47024651	     15.33203068	     97.19686338	      0.00000000	      9.92152590	      1.69640529	     14.79228394	      0.00000000	      0.00000000	    108.55647239	    -30.41662082	      8.74812544	     91.24183405	      0.00000000	     -9.94453757	      1.59247042	     12.28397933	      0.00000000	      0.00000000
      3.29500000	      6.46405736	    -31.98940745	      5.55033142	     -0.03472486	      0.54106485	     -1.17804355	    116.38898921	    -45.45531378	     15.52727537	     97.42567739	      0.00000000	      9.92178129	      1.70039885	     14.84718700	      0.00000000	      0.00000000	    108.75931344	    -30.43735791	      8.93493684	     91.48873658	      0.00000000	     -9.94472638	      1.59677968	     12.36489173	      0.00000000	      0.00000000
      3.30000000	      6.40036810	    -32.00888015	      5.57889441	     -0.03461030	      0.53950783	     -1.17803525	    116.71525439	    -45.35830870	     15.79985155	     97.66451529	      0.00000000	      9.92202016	      1.70456735	     15.01215232	      0.00000000	      0.00000000	    108.97572550	    -30.52512603	      9.05115636	     91.74042199	      0.00000000	     -9.94487322	      1.60117242	     12.44166437	      0.00000000	      0.00000000
      3.30500000	      6.38150292	    -31.93406104	      5.51310689	     -0.03453694	      0.53791556	     -1.17806868	    116.87803818	    -45.38114592	     15.95284730	     97.89427144	      0.00000000	      9.92232807	      1.70857736	     14.97680382	      0.00000000	      0.00000000	    109.18209221	    -30.50653876	      9.28726458	     91.99210714	      0.00000000	     -9.94505639	      1.60556516	     12.51772870	      0.00000000	      0.00000000
      3.31000000	      6.33138540	    -31.89314073	      5.48455625	     -0.03441250	      0.53633875	     -1.17811765	    117.09673823	    -45.33623073	     16.16241017	     98.12171355	      0.00000000	      9.92254968	      1.71254697	     15.04360249	      0.00000000	      0.00000000	    109.38103378	    -30.54999281	      9.46624526	     92.24471654	      0.00000000	     -9.94525246	      1.60997402	     12.60305468	      0.00000000	      0.00000000
      3.31500000	      6.28528146	    -31.88166244	      5.47148695	     -0.03429209	      0.53471831	     -1.17815649	    117.37470689	    -45.29008836	     16.39827960	     98.36275043	      0.00000000	      9.92287981	      1.71675386	     15.10128148	      0.00000000	      0.00000000	    109.61639117	    -30.59179944	      9.63892583	     92.50514782	      0.00000000	     -9.94544061	      1.61451940	     12.66136186	      0.00000000	      0.00000000
      3.32000000	      6.24884042	    -31.83324727	      5.43538486	     -0.03417705	      0.53309635	     -1.17819534	    117.58788947	    -45.27089488	     16.59306269	     98.59536872	      0.00000000	      9.92309202	      1.72081381	     15.16567884	      0.00000000	      0.00000000	    109.82132679	    -30.60096032	      9.84776793	     92.76407131	      0.00000000	     -9.94560681	      1.61903847	     12.76391410	      0.00000000	      0.00000000
      3.32500000	      6.17760796	    -31.78018472	      5.41552222	     -0.03403561	      0.53149136	     -1.17824092	    117.81053370	    -45.20390604	     16.81729629	     98.83091489	      0.00000000	      9.92336455	      1.72492487	     15.22971691	      0.00000000	      0.00000000	    109.99749568	    -30.66025875	     10.01585523	     93.01996295	      0.00000000	     -9.94578228	      1.62350462	     12.85770887	      0.00000000	      0.00000000
      3.33000000	      6.14886245	    -31.74956224	      5.37964232	     -0.03388870	      0.52984244	     -1.17829008	    118.04925504	    -45.19203967	     17.02139255	     99.06702027	      0.00000000	      9.92365940	      1.72904568	     15.27785833	      0.00000000	      0.00000000	    110.23867543	    -30.67170553	     10.22648107	     93.28307103	      0.00000000	     -9.94595689	      1.62809673	     12.91132045	      0.00000000	      0.00000000
      3.33500000	      6.10373385	    -31.70276186	      5.35272272	     -0.03373317	      0.52822509	     -1.17835614	    118.26707613	    -45.16280393	     17.23000745	     99.29475524	      0.00000000	      9.92396469	      1.73302041	     15.33947976	      0.00000000	      0.00000000	    110.43529819	    -30.69724402	     10.41357807	     93.53994406	      0.00000000	     -9.94617669	      1.63258001	     12.99978544	      0.00000000	      0.00000000
      3.34000000	      6.06410052	    -31.65165177	      5.31075022	     -0.03355367	      0.52659286	     -1.17840852	    118.46966040	    -45.14986383	     17.41837255	     99.52463040	      0.00000000	      9.92424161	      1.73703249	     15.39540603	      0.00000000	      0.00000000	    110.64486841	    -30.71397387	     10.62323591	     93.80224350	      0.00000000	     -9.94637013	      1.63715799	     13.08268570	      0.00000000	      0.00000000
      3.34500000	      6.04294306	    -31.66177496	      5.28030668	     -0.03341578	      0.52498431	     -1.17845933	    118.74337306	    -45.13486043	     17.62355362	     99.75840799	      0.00000000	      9.92466429	      1.74111268	     15.46455496	      0.00000000	      0.00000000	    110.91488421	    -30.71588573	     10.82772130	     94.05713034	      0.00000000	     -9.94659399	      1.64160661	     13.15323280	      0.00000000	      0.00000000
      3.35000000	      5.94289859	    -31.58713460	      5.22246150	     -0.03321628	      0.52335433	     -1.17849170	    118.90126973	    -45.05684730	     17.79581747	     99.98665322	      0.00000000	      9.92486203	      1.74509631	     15.52091236	      0.00000000	      0.00000000	    111.09970099	    -30.80700430	     11.03085962	     94.31851006	      0.00000000	     -9.94679770	      1.64616855	     13.21670794	      0.00000000	      0.00000000
      3.35500000	      5.88352396	    -31.53035578	      5.21293515	     -0.03299743	      0.52175085	     -1.17847995	    119.11499301	    -44.99909179	     18.01697218	    100.21576431	      0.00000000	      9.92523026	      1.74909505	     15.62499099	      0.00000000	      0.00000000	    111.25563998	    -30.87608200	     11.19128290	     94.55856092	      0.00000000	     -9.94695915	      1.65035822	     13.36589644	      0.00000000	      0.00000000
      3.36000000	      5.83941713	    -31.51449128	      5.13944066	     -0.03283384	      0.52010182	     -1.17856196	    119.32011191	    -44.97777682	     18.17962228	    100.44495024	      0.00000000	      9.92553424	      1.75309510	     15.64700734	      0.00000000	      0.00000000	    111.54760828	    -30.89407821	     11.43269545	     94.83188657	      0.00000000	     -9.94725662	      1.65512866	     13.36145582	      0.00000000	      0.00000000
      3.36500000	      5.81261188	    -31.48781245	      5.08756800	     -0.03262987	      0.51851085	     -1.17859324	    119.52674829	    -44.97536698	     18.34810377	    100.66982648	      0.00000000	      9.92585513	      1.75701993	     15.69120891	      0.00000000	      0.00000000	    111.79158601	    -30.90935653	     11.64809718	     95.08166931	      0.00000000	     -9.94745911	      1.65948819	     13.42305977	      0.00000000	      0.00000000
